<?xml version="1.0" encoding="UTF-8"?>
<svg width="128" height="128" viewBox="0 0 128 128" xmlns="http://www.w3.org/2000/svg">
  <path d="M64 8C32 8 8 32 8 64C8 96 32 120 64 120C96 120 120 96 120 64C120 32 96 8 64 8ZM64 112C36.3 112 16 91.7 16 64C16 36.3 36.3 16 64 16C91.7 16 112 36.3 112 64C112 91.7 91.7 112 64 112Z" fill="#4CAF50"/>
  <path d="M64 24C40.9 24 24 40.9 24 64C24 87.1 40.9 104 64 104C87.1 104 104 87.1 104 64C104 40.9 87.1 24 64 24ZM64 96C45.2 96 32 82.8 32 64C32 45.2 45.2 32 64 32C82.8 32 96 45.2 96 64C96 82.8 82.8 96 64 96Z" fill="#81C784"/>
  <path d="M64 40C54.1 40 48 46.1 48 56C48 65.9 54.1 72 64 72C73.9 72 80 65.9 80 56C80 46.1 73.9 40 64 40Z" fill="#2E7D32"/>
</svg>
